:FULLY-SPECIFIED
:FORCE-ALL-JOINTS-BE-3DOF
:DEGREES
340
root 8.15436 16.0888 -20.4241 10.2968 23.6583 3.95056
lfemur -8.70585 16.0754 -9.68376
ltibia 41.6934 -0 0
lfoot 4.31979 27.5318 0.21664
ltoes -24.1401 0 0
rfemur -46.9282 -14.1559 10.4155
rtibia 54.6121 -0 0
rfoot 1.89697 -17.2563 -0.199255
rtoes 9.60555 -0 0
lowerback -0.213481 -1.69753 -1.5578
upperback 1.98828 -2.23559 -0.100451
thorax 2.22007 -1.13919 0.72766
lowerneck -5.64356 -8.66679 -0.403304
upperneck -2.0283 -11.5517 6.47472
head 0.74627 -5.71678 1.80738
lclavicle -3.73263e-14 -1.04814e-15 6.0117e-31
lhumerus -48.1363 -35.2425 109.625
lradius 57.3579 -0 0
lwrist 18.4573 0 0
lhand 6.32843 11.7272 0.0367478
lfingers 7.12502 -0 0
lthumb 31.6298 38.9487 0.0149751
rclavicle -3.73263e-14 -1.04814e-15 6.0117e-31
rhumerus -22.5869 18.9272 -73.9187
rradius 83.9232 -0 0
rwrist 3.0978 0 0
rhand -11.488 -10.8742 1.25171
rfingers 7.12502 -0 0
rthumb 14.4882 -39.4758 1.43087
341
root 8.09582 16.1188 -20.2467 10.1418 22.0212 3.39595
lfemur -8.11949 14.8517 -9.01731
ltibia 41.9818 -0 0
lfoot 5.94853 28.0408 0.202168
ltoes -22.5335 0 0
rfemur -46.8536 -14.8084 12.1172
rtibia 54.3762 -0 0
rfoot 1.02735 -16.3803 -0.185957
rtoes 6.34816 -0 0
lowerback -0.48966 -1.63163 -1.33672
upperback 1.90149 -2.15066 0.0258295
thorax 2.27991 -1.09445 0.728062
lowerneck -5.83209 -8.38736 -0.448179
upperneck -1.70184 -11.1954 6.38017
head 0.865342 -5.52879 1.77915
lclavicle -3.88759e-14 4.33714e-16 5.61092e-31
lhumerus -48.0822 -34.0975 109.315
lradius 57.0944 -0 0
lwrist 18.8462 0 0
lhand 5.68055 11.5105 0.0342972
lfingers 7.12502 -0 0
lthumb 31.013 38.856 0.0139765
rclavicle -3.88759e-14 4.33714e-16 5.61092e-31
rhumerus -24.0342 18.3526 -75.8216
rradius 83.8591 -0 0
rwrist 3.03235 0 0
rhand -14.7479 -12.3527 1.1675
rfingers 7.12502 -0 0
rthumb 11.3502 -41.2318 1.3346
342
root 8.03728 16.1488 -20.0693 10.0054 20.3828 2.85218
lfemur -7.55098 13.6217 -8.36739
ltibia 42.2701 -0 0
lfoot 7.57709 28.5492 0.173235
ltoes -20.927 0 0
rfemur -46.799 -15.4628 13.8234
rtibia 54.1403 -0 0
rfoot 0.158042 -15.5045 -0.159367
rtoes 3.09077 -0 0
lowerback -0.765575 -1.56465 -1.11596
upperback 1.8149 -2.06553 0.151973
thorax 2.33975 -1.0497 0.72851
lowerneck -6.02071 -8.10807 -0.49395
upperneck -1.37638 -10.8386 6.28779
head 0.984282 -5.34075 1.75132
lclavicle -4.04255e-14 1.91556e-15 4.80936e-31
lhumerus -48.0362 -32.9523 109.011
lradius 56.8309 -0 0
lwrist 19.2351 0 0
lhand 5.03268 11.2938 0.0293962
lfingers 7.12502 -0 0
lthumb 30.3962 38.7632 0.0119794
rclavicle -4.04255e-14 1.91556e-15 4.80936e-31
rhumerus -25.4558 17.7331 -77.7021
rradius 83.795 -0 0
rwrist 2.9669 0 0
rhand -18.0044 -13.824 0.999407
rfingers 7.12502 -0 0
rthumb 8.21673 -42.9798 1.14243
343
root 7.97874 16.1789 -19.8919 9.88673 18.7433 2.31804
lfemur -6.99962 12.3855 -7.73322
ltibia 42.5585 -0 0
lfoot 9.20532 29.0565 0.129869
ltoes -19.3205 0 0
rfemur -46.7645 -16.1184 15.5345
rtibia 53.9044 -0 0
rfoot -0.710761 -14.6293 -0.119497
rtoes -0.166618 0 0
lowerback -1.04122 -1.49662 -0.89554
upperback 1.7285 -1.98022 0.27798
thorax 2.39958 -1.00496 0.729006
lowerneck -6.20942 -7.82894 -0.540618
upperneck -1.05188 -10.4813 6.19759
head 1.10309 -5.15265 1.72389
lclavicle -4.19752e-14 3.39741e-15 3.60702e-31
lhumerus -47.9979 -31.8069 108.711
lradius 56.5674 -0 0
lwrist 19.624 0 0
lhand 4.38483 11.0772 0.0220456
lfingers 7.12502 -0 0
lthumb 29.7794 38.6705 0.00898401
rclavicle -4.19752e-14 3.39741e-15 3.60702e-31
rhumerus -26.8504 17.0698 -79.5594
rradius 83.7309 -0 0
rwrist 2.90145 0 0
rhand -21.2553 -15.2832 0.748091
rfingers 7.12502 -0 0
rthumb 5.09081 -44.7145 0.855136
344
root 7.92021 16.2089 -19.7146 9.78519 17.1029 1.79237
lfemur -6.4647 11.1436 -7.11405
ltibia 42.8469 -0 0
lfoot 10.8331 29.5624 0.0721067
ltoes -17.7139 0 0
rfemur -46.7503 -16.7747 17.2509
rtibia 53.6685 -0 0
rfoot -1.57885 -13.7548 -0.0663669
rtoes -3.42401 0 0
lowerback -1.31659 -1.42753 -0.675453
upperback 1.64229 -1.89472 0.403849
thorax 2.45942 -0.960218 0.729548
lowerneck -6.39824 -7.54996 -0.588182
upperneck -0.728329 -10.1235 6.10955
head 1.22177 -4.96451 1.69686
lclavicle -4.35248e-14 4.87926e-15 2.0039e-31
lhumerus -47.967 -30.6613 108.417
lradius 56.304 -0 0
lwrist 20.0128 0 0
lhand 3.73702 10.8607 0.0122464
lfingers 7.12502 -0 0
lthumb 29.1626 38.5778 0.00499072
rclavicle -4.35248e-14 4.87926e-15 2.0039e-31
rhumerus -28.2169 16.364 -81.3927
rradius 83.6668 -0 0
rwrist 2.836 0 0
rhand -24.4986 -16.7258 0.414527
rfingers 7.12502 -0 0
rthumb 1.97523 -46.4309 0.473834
345
root 7.86167 16.2389 -19.5372 9.70011 15.4616 1.27409
lfemur -5.9456 9.89612 -6.50917
ltibia 43.1352 0 0
lfoot 12.4603 30.0664 0
ltoes -16.1074 0 0
rfemur -46.7567 -17.4311 18.9732
rtibia 53.4326 0 0
rfoot -2.44603 -12.8812 0
rtoes -6.6814 0 0
lowerback -1.59169 -1.35738 -0.455707
upperback 1.55628 -1.80903 0.529581
thorax 2.51926 -0.915477 0.730137
lowerneck -6.58717 -7.27114 -0.636643
upperneck -0.405685 -9.76516 6.02366
head 1.34033 -4.77631 1.67023
lclavicle -4.50744e-14 6.36111e-15 0
lhumerus -47.9433 -29.5156 108.126
lradius 56.0405 0 0
lwrist 20.4017 0 0
lhand 3.08925 10.6443 0
lfingers 7.12502 0 0
lthumb 28.5458 38.4852 0
rclavicle -4.50744e-14 6.36111e-15 0
rhumerus -29.5543 15.617 -83.2014
rradius 83.6027 0 0
rwrist 2.77055 0 0
rhand -27.7324 -18.1472 0
rfingers 7.12502 0 0
rthumb -1.12744 -768.124 0
346
root 7.78295 16.2697 -19.3663 9.30892 13.8771 0.816619
lfemur -5.78726 9.25043 -5.86632
ltibia 44.7449 -0 0
lfoot 12.3404 29.0951 0.00101674
ltoes -8.6513 0 0
rfemur -45.8232 -17.778 20.2267
rtibia 52.8359 -0 0
rfoot -3.80764 -11.4292 -0.0172547
rtoes -5.67472 0 0
lowerback -1.40394 -1.27341 -0.346722
upperback 1.61341 -1.70262 0.638117
thorax 2.4707 -0.861611 0.788006
lowerneck -6.69951 -6.99916 -0.629929
upperneck -0.112575 -9.41431 5.83321
head 1.43109 -4.59676 1.61469
lclavicle -9.1441e-15 8.24955e-15 -5.92124e-31
lhumerus -47.7825 -28.8176 107.809
lradius 55.8715 -0 0
lwrist 19.818 0 0
lhand 2.38145 10.274 0.0022874
lfingers 7.12502 -0 0
lthumb 27.8691 38.2246 0.00153865
rclavicle -9.1441e-15 8.24955e-15 -5.92124e-31
rhumerus -30.7241 14.92 -84.6982
rradius 82.9562 -0 0
rwrist 3.53379 0 0
rhand -33.9404 -21.7091 0.193214
rfingers 7.12502 -0 0
rthumb -7.11912 -51.4815 0.175765
